<svg width="20" height="20" viewBox="0 0 20 20" fill="none" xmlns="http://www.w3.org/2000/svg">
    <path
        d="M10.5892 3.57742C10.2638 3.25198 9.73616 3.25198 9.41072 3.57742L3.57739 9.41075C3.25195 9.73619 3.25195 10.2638 3.57739 10.5893C3.90283 10.9147 4.43047 10.9147 4.7559 10.5893L9.16665 6.17852L9.16665 15.8333C9.16665 16.2936 9.53974 16.6667 9.99998 16.6667C10.4602 16.6667 10.8333 16.2936 10.8333 15.8333L10.8333 6.17852L15.2441 10.5893C15.5695 10.9147 16.0971 10.9147 16.4226 10.5893C16.748 10.2638 16.748 9.73619 16.4226 9.41075L10.5892 3.57742Z"
        fill="url(#paint0_linear_1_433)" />
    <defs>
        <linearGradient id="paint0_linear_1_433" x1="9.99998" y1="16.6667" x2="9.99998" y2="3.33334"
            gradientUnits="userSpaceOnUse">
            <stop stop-color="#5153CB" />
            <stop offset="1" stop-color="#CC72E9" />
        </linearGradient>
    </defs>
</svg>