<svg width="20" height="20" viewBox="0 0 20 20" fill="none" xmlns="http://www.w3.org/2000/svg">
    <path
        d="M5.33959 11.1483C5.75772 10.8996 5.91224 10.4108 5.73045 9.98205C4.81239 7.85537 5.25778 5.32564 7.08481 3.602C8.91183 1.87836 11.5933 1.45817 13.8475 2.32428C14.302 2.50436 14.8292 2.35 15.0837 1.95554C15.42 1.44959 15.1746 0.797867 14.5929 0.574909C11.6206 -0.565611 8.08467 -0.00821498 5.66682 2.26425C3.24897 4.54529 2.65814 7.88109 3.87616 10.6852C4.11249 11.234 4.8033 11.457 5.33959 11.1483Z"
        fill="#808080" />
    <path
        d="M8.18741 5.61655C8.45101 6.01101 8.96912 6.15679 9.42361 5.98529C11.6778 5.11918 14.3593 5.53937 16.1863 7.26301C18.0133 8.98666 18.4587 11.5164 17.5407 13.6431C17.3498 14.0718 17.5134 14.5692 17.9315 14.8093C18.4678 15.1266 19.1586 14.8951 19.395 14.3462C20.6039 11.5421 20.0131 8.2063 17.6043 5.92526C15.1865 3.64422 11.6506 3.08682 8.67825 4.23592C8.09652 4.45888 7.86018 5.1106 8.18741 5.61655Z"
        fill="#808080" />
    <path
        d="M11.8239 14.1931C11.5603 13.7986 11.0421 13.6528 10.5877 13.8243C8.33343 14.6904 5.65198 14.2702 3.82495 12.5466C1.99793 10.823 1.55254 8.29323 2.47059 6.16655C2.66148 5.73778 2.49786 5.24042 2.07974 5.00031C1.54345 4.69159 0.852633 4.91455 0.616301 5.46337C-0.601714 8.26751 -0.00179616 11.6033 2.40697 13.8844C4.81573 16.1654 8.3607 16.7228 11.333 15.5737C11.9148 15.3507 12.1511 14.699 11.8239 14.1931Z"
        fill="#808080" />
    <path
        d="M14.3768 8.84894C13.9587 9.09762 13.8042 9.58642 13.986 10.0152C14.904 12.1419 14.4587 14.6716 12.6316 16.3952C10.8046 18.1189 8.12316 18.5391 5.86892 17.673C5.41444 17.4929 4.88723 17.6472 4.63272 18.0417C4.3055 18.5476 4.54183 19.1994 5.12357 19.4223C8.09589 20.5714 11.6318 20.0055 14.0496 17.733C16.4675 15.4519 17.0583 12.1161 15.8403 9.31201C15.604 8.76319 14.9131 8.54023 14.3768 8.84894Z"
        fill="#808080" />
</svg>