<svg width="18" height="20" viewBox="0 0 18 20" fill="none" xmlns="http://www.w3.org/2000/svg">
    <path
        d="M6.82927 16.1426L7.31631 17.238C7.46109 17.564 7.69737 17.8411 7.9965 18.0355C8.29562 18.2299 8.64473 18.3334 9.0015 18.3333C9.35826 18.3334 9.70737 18.2299 10.0065 18.0355C10.3056 17.8411 10.5419 17.564 10.6867 17.238L11.1737 16.1426C11.3471 15.7539 11.6387 15.4299 12.0071 15.2167C12.3777 15.0029 12.8065 14.9118 13.2321 14.9565L14.4237 15.0833C14.7784 15.1208 15.1364 15.0546 15.4543 14.8928C15.7721 14.7309 16.0362 14.4803 16.2145 14.1713C16.3929 13.8625 16.478 13.5086 16.4592 13.1524C16.4405 12.7962 16.3188 12.4532 16.1089 12.1648L15.4033 11.1954C15.1521 10.8476 15.0179 10.429 15.02 9.99999C15.0199 9.57215 15.1554 9.15528 15.4071 8.80925L16.1126 7.8398C16.3225 7.55145 16.4442 7.20838 16.4629 6.85222C16.4817 6.49605 16.3966 6.14211 16.2182 5.83332C16.0399 5.52435 15.7758 5.27373 15.458 5.11185C15.1401 4.94996 14.7821 4.88377 14.4274 4.92129L13.2358 5.04814C12.8102 5.09283 12.3814 5.00176 12.0108 4.78795C11.6417 4.57353 11.35 4.24779 11.1774 3.8574L10.6867 2.76203C10.5419 2.43597 10.3056 2.15892 10.0065 1.96449C9.70737 1.77006 9.35826 1.6666 9.0015 1.66666C8.64473 1.6666 8.29562 1.77006 7.9965 1.96449C7.69737 2.15892 7.46109 2.43597 7.31631 2.76203L6.82927 3.8574C6.65671 4.24779 6.365 4.57353 5.99594 4.78795C5.62529 5.00176 5.1965 5.09283 4.77094 5.04814L3.57557 4.92129C3.22084 4.88377 2.86285 4.94996 2.545 5.11185C2.22714 5.27373 1.96308 5.52435 1.78483 5.83332C1.60635 6.14211 1.52131 6.49605 1.54005 6.85222C1.55879 7.20838 1.68049 7.55145 1.89038 7.8398L2.59594 8.80925C2.84756 9.15528 2.98305 9.57215 2.98298 9.99999C2.98305 10.4278 2.84756 10.8447 2.59594 11.1907L1.89038 12.1602C1.68049 12.4485 1.55879 12.7916 1.54005 13.1478C1.52131 13.5039 1.60635 13.8579 1.78483 14.1667C1.96326 14.4755 2.22735 14.726 2.54516 14.8878C2.86297 15.0497 3.22087 15.116 3.57557 15.0787L4.76724 14.9518C5.19279 14.9071 5.62158 14.9982 5.99224 15.212C6.36268 15.4258 6.65574 15.7517 6.82927 16.1426Z"
        stroke="#7F7F7F" stroke-width="1.66667" stroke-linecap="round" stroke-linejoin="round" />
    <path
        d="M9.00001 12.5C10.3807 12.5 11.5 11.3807 11.5 9.99999C11.5 8.61928 10.3807 7.49999 9.00001 7.49999C7.61929 7.49999 6.50001 8.61928 6.50001 9.99999C6.50001 11.3807 7.61929 12.5 9.00001 12.5Z"
        stroke="#7F7F7F" stroke-width="1.66667" stroke-linecap="round" stroke-linejoin="round" />
</svg>